<svg height='100px' width='100px'  fill="#000000" xmlns="http://www.w3.org/2000/svg" viewBox="0 0 128 128" x="0px" y="0px"><g><path d="M101.5,53.416c-1.534,2.006-4.923,5.38-7.9,5.38a3.878,3.878,0,0,1-3.45-2.28c-2.644-4.65,1.079-10.409,4.088-15.028.684-1.064,1.322-2.067,1.824-2.933.212-.365.425-.821.683-1.307,1.14-2.249,2.72-5.349,5.136-5.683a4.353,4.353,0,0,1,.623-.046c3.009,0,4.2,3.222,4.985,5.349a1.336,1.336,0,0,1,.075.577C108.3,42.369,104.915,48.933,101.5,53.416Zm-5.455-9.573c-4.224,6.975-4.422,9.862-3.86,11.077a1.829,1.829,0,0,0,1.535,1.018c3.511.532,6.853-5.834,7.917-7.87l.2-.38c1.458-2.766,3.677-6.93,3.008-10.09-.379-1.018-1.17-3.207-2.264-3.207-.44,0-.927.334-1.443,1a24.686,24.686,0,0,0-2.219,3.632c-.562,1.079-1.216,2.127-1.838,3.13-.319.5-.624,1-.928,1.52Z"></path><path d="M91,69.114a1.513,1.513,0,0,1-.987,1.656A49.349,49.349,0,0,1,79.767,72.2h-.031c-.866,0-1.322-.957-1.322-1.625,0-.685.456-1.657,1.338-1.672a46.766,46.766,0,0,0,9.557-1.064,2.339,2.339,0,0,1,.3-.031A1.431,1.431,0,0,1,91,69.114Z"></path><path d="M65.877,31.413a6.573,6.573,0,0,1,1.915-.289c5.364,0,8.054,7.127,9.194,11.367.182.744.471,1.58.759,2.491,1.14,3.5,2.568,7.842.958,10.623a5.378,5.378,0,0,1-3.8,2.446,11.041,11.041,0,0,1-2.234.228c-6.367,0-11.67-5.774-13.615-11.473C57.611,40.622,59.769,33.191,65.877,31.413Zm8.48,11.792c-1.794-6.215-4.118-9.5-6.747-9.5a4.453,4.453,0,0,0-2.432.851c-3.661,2.508-4.376,7.72-3.479,11.519A14.823,14.823,0,0,0,67.473,53.8a16.882,16.882,0,0,0,6.656,1.732,3.011,3.011,0,0,0,2.462-.82,2.637,2.637,0,0,0,.2-2.3c-.274-1-.532-2.021-.79-3.039C75.466,47.353,74.934,45.256,74.357,43.205Z"></path><path d="M42.78,35.622a20.91,20.91,0,0,1,.669,2.629L43.8,39.71c1.672,7.02,3.419,14.268.107,21.152a1.207,1.207,0,0,1-1.079.7,1.489,1.489,0,0,1-1.11-.532,1.365,1.365,0,0,1-.562-1.018c-.5-6.868-3.89-13.706-6.4-18.25-.137-.243-.289-.517-.441-.8-.881-1.656-2.081-3.905-3.677-4.6-.426-.183-.7-.2-.851.015-.486.729.288,3.358,1.109,5.409l.015.031c.472.957.973,1.9,1.459,2.826l.411.76c2.324,4.27,4.725,8.692,4.573,13.6-.061,1.945-1.018,3.161-2.507,3.161a3.952,3.952,0,0,1-1.611-.41,1.159,1.159,0,0,1-.668-1.414c-2.143-6.306-4.726-12.7-8.935-16.715a8.984,8.984,0,0,0-4.043-2.9c-1.686.928-2.021,1.566-2.005,1.93.03.441.577.882,1.6,1.262a23.276,23.276,0,0,1,3.8,2.933,32.126,32.126,0,0,1,8.935,20.848c.015.426.015.866.03,1.338.046,3.54.107,7.947,2.766,10.287a26.878,26.878,0,0,0,3.389,2.4c.669.411,1.368.851,2.036,1.323a10.915,10.915,0,0,1,3.8,5.728c.243.715.441,1.429.638,2.082a54.216,54.216,0,0,0,4.347,9.711c.9,1.686,1.808,3.433,2.613,5.181.319.745.607,1.428.881,2.1a37.759,37.759,0,0,1,1.5,3.692c1.2,2.736,2.871,6.094,5.181,7.568a7.317,7.317,0,0,0,1.657.532,61.094,61.094,0,0,0,10.652.745c1.352,0,2.7-.031,4.057-.061s2.705-.076,4.057-.076c1.444,0,2.69-.061,3.86-.015,1.672.075,3.526.106,5.5.319a70.278,70.278,0,0,0,7.6.288h.76c7.78,0,11.928-2.234,13.463-7.947.091-.274.213-.152.395-.3.653-4.589.137-9.193-.851-14.679-.881-5.045-2.2-10.045-7.917-10.88-1.367-.213-2.7-.289-3.981-.365-2.584-.167-4.817-.3-6.413-1.352a1.512,1.512,0,0,1-1.732-.091,1.272,1.272,0,0,1-.441-1c-.015-.958-.03-1.915-.015-2.842-.061-.5-.106-1.033-.121-1.565a1.24,1.24,0,0,1,.289-.805,10.023,10.023,0,0,1,1.489-4.286,1.288,1.288,0,0,1,.531-.455,1.32,1.32,0,0,1,.623-.532c.41-.167.821-.335,1.216-.517,15.15-6.838,20.119-26.683,17-42.35-2.994-15.09-11.488-24.1-22.7-24.1a25.982,25.982,0,0,0-6.565.9c-16.807,4.422-28.036,19.769-26.7,36.515.912,11.4,6.975,30.756,23.842,30.969a1.359,1.359,0,0,1,.927.38,1.284,1.284,0,0,1,.258.061,1.207,1.207,0,0,1,.244.121c2.507,1.459,2.34,4.438,2.2,7.051-.03.516-.061,1-.061,1.459a1.589,1.589,0,0,1-.137.577,1.579,1.579,0,0,1-.136,1.307,1.284,1.284,0,0,1-1.094.592c-6.748.107-11.427,1.733-14.315,4.969-2.887,3.252-4.209,7.523-4.133,13.464a1.6,1.6,0,0,1-.091.517c1.079,1.322,2.218,2.674,3.358,4.026a1.369,1.369,0,0,1,.213,1.52,1.418,1.418,0,0,1-1.231.851,1.186,1.186,0,0,1-.927-.455c-7.613-8.981-12.6-16.382-16.016-23.736-.228-.5-.456-.988-.669-1.475a23.3,23.3,0,0,1-2.219-12.323,42.18,42.18,0,0,1,1.611-7.309A39.686,39.686,0,0,0,48.1,58.78a48.022,48.022,0,0,0-2.037-19.04c-.136-.38-.258-.759-.38-1.139a21.569,21.569,0,0,0-2.051-4.863c-.653.136-1.064.349-1.185.653q-.206.41.319,1.185Zm-4.923,6.215a67.015,67.015,0,0,1,5.09,12.689c.517-4.256-.516-8.646-1.519-12.886-.213-.912-.425-1.793-.623-2.69a13.968,13.968,0,0,0-.456-1.505c-.669-2.036-1.58-4.816-.274-6.214a3.587,3.587,0,0,1,2.568-1.383c3.48,0,5.775,7.735,6.61,11.063a64.212,64.212,0,0,1,1.323,6.7,45.215,45.215,0,0,1,.258,11.215,49.714,49.714,0,0,1-1.672,7.568,37.076,37.076,0,0,0-1.778,9.421c-.03,9.649,6.93,19.724,12.37,26.622.349-5.911,2.188-10.378,5.471-13.3,3.752-3.373,7.916-4.878,14.314-5.136.015-.349.045-.76.091-1.17.151-1.7.349-4.042-.912-4.786a1.289,1.289,0,0,1-.243-.183c-15.5-.319-24.283-15.53-26.106-30.483-.122-.987-.229-2.035-.289-3.191A38.375,38.375,0,0,1,83.854,4.41,27.051,27.051,0,0,1,88.459,4c15.515,0,23.279,14.831,25.376,28.72A48.656,48.656,0,0,1,110.963,58.1c-3.556,8.677-9.512,14.922-17.247,18.083a9.045,9.045,0,0,0-1.231,4.558c.73,2.827,4.848,3.252,8.5,3.617a22.016,22.016,0,0,1,4.8.835c2.37.882,4.27,2.918,5.637,6.048,3.146,7.051,3.814,18.068,1.565,25.62a1.271,1.271,0,0,1-1.246.942c-3.267,5.5-9.284,6.2-14.162,6.2-2.614,0-5.318-.228-7.932-.471-2.219-.182-4.316-.38-6.276-.41-2.127-.03-4.255,0-6.4.03-1.505.03-3.025.046-4.529.046-2.355.015-4.27-.046-6.063-.183-.425-.03-.881-.06-1.337-.091-2.7-.152-5.775-.319-7.993-1.762-2.735-1.763-3.951-4.453-4.969-7.051-.578-1.261-1.11-2.568-1.61-3.845l-.457-1.109a7.889,7.889,0,0,0-.425-.775,1.224,1.224,0,0,1-.168-.668c-.045-.092-.075-.183-.121-.259-.046-.137-.106-.258-.152-.365-1.079-2.355-2.279-4.664-3.434-6.883-.623-1.216-1.246-2.431-1.854-3.647a23.6,23.6,0,0,1-1.428-4.088A16.221,16.221,0,0,0,40.3,87.242,19.9,19.9,0,0,0,35.638,83c-2.7-1.96-5.243-3.814-5.942-8.175-.288-1.869-.486-3.693-.668-5.471C28.5,64.342,28,59.6,25.412,54.753a22.952,22.952,0,0,0-7.568-8.479,9.2,9.2,0,0,1-3.677-3.753,2.927,2.927,0,0,1,.015-2.614A4.572,4.572,0,0,1,17.3,37.719a7.867,7.867,0,0,1,1.443-.136c5.684,0,10.956,6.625,15.667,19.724a31.52,31.52,0,0,0-.593-3.419c-.8-1.991-1.792-4.089-3.008-6.413-.243-.456-.5-.912-.76-1.383a38.209,38.209,0,0,1-2.553-5.258c-.546-1.489-1.139-4.452.046-6.139A3.041,3.041,0,0,1,30.2,33.464c3.616,0,6.155,5.243,7.507,8.054Z"></path><path d="M65.863,42.187a5.629,5.629,0,0,1,.158-2.239,1.222,1.222,0,0,1,.328-.475A1.73,1.73,0,0,1,67.42,39.3c1.911.075,1.9-2.888,0-2.964a4.156,4.156,0,0,0-3.812,1.838,6.43,6.43,0,0,0-.709,4.013c.155,1.89,3.119,1.905,2.964,0Z"></path><path d="M101.328,42.665a6.8,6.8,0,0,0,1.9-2.934,1.483,1.483,0,0,0-1.035-1.822,1.516,1.516,0,0,0-1.823,1.034,3.712,3.712,0,0,1-1.138,1.626,1.484,1.484,0,0,0,0,2.1,1.515,1.515,0,0,0,2.095,0Z"></path></g></svg>