<svg height='100px' width='100px'  fill="#000000" xmlns="http://www.w3.org/2000/svg" viewBox="0 0 128 128" x="0px" y="0px"><g><path d="M41.449,81.268c3.1,1.679,6.818,2.3,9.428-.245-3.98-1.924-7.829-4.436-10.422-7.829C38.937,75.787,38.464,79.653,41.449,81.268Zm-30.533,17c.049,3.865,2.985,7.91,7.258,7.518,2.789-.244,4.453-2.348,5.709-4.632-3.637-.113-7.209-.325-10.488-2.186l-.033-.031C12.547,98.7,11.731,98.475,10.916,98.264ZM112.2,96.975a30.2,30.2,0,0,1-4.958,2.251c1.517,2.2,3.556,3.165,6.671,1.68,2.642-1.257,4.763-4.355,3.425-7.062-1.647,1.059-3.311,2.12-5.007,3.066A.485.485,0,0,1,112.2,96.975Zm-59.337-71.8a26.071,26.071,0,0,0-8.792,11.859c-.669,1.874-2.789,5.186,1.3,5.985,1.729.343,3.458.654,5.187.963,9.02,1.565,19.719,2.527,28.641.227,4.257-1.092,7.536-1.973,6.378-7.175a20.576,20.576,0,0,0-6.035-10.488C72.26,20.022,60.891,19.059,52.867,25.175Zm39.52,57.968c3.18-1.762,2.268-6.524-.881-7.861a21.268,21.268,0,0,1-8.09,6.687C85.309,84.791,89.6,84.693,92.387,83.143ZM55.231,79.491a8.59,8.59,0,0,1,.686-3.231c1.256-2.951,4.632-2.609,7.372-2.969a24.142,24.142,0,0,1,11.353.881c.065.018.1.065.146.1a.605.605,0,0,1,.229.065c2.283,1.19,3.343,3.637,3.441,6.23,4.844-1.6,9.265-4.355,11.564-8.906-15.674,1.811-32.507-.6-47.007-2.886-.554-.1-1.093-.212-1.631-.293C43.667,73.912,49.768,77.272,55.231,79.491Zm-40.923-39.6c-6.589,3.719-10.1,9.606-2.887,14.664,8.042,5.626,18.415,8.676,28.005,10.437,19.671,3.6,42.392,6.77,61.932.865,7.274-2.2,26.276-9.639,17.876-20.518-6.72-8.71-20.486-10.341-30.843-10.553,1.778,4.877,1.566,9.737-4.159,11.384C71.167,49.9,56.26,49.3,43.129,45.694c-5.138-1.4-4.257-6.441-1.516-11.515-5.057.343-10.358-.261-15.17,1.142A56.422,56.422,0,0,0,14.308,39.888ZM59.6,77.011c-1.925.114-.9,4.893-.456,5.692a8.792,8.792,0,0,0,3.424,3.571c2.838,1.584,6.835,2.4,9.754.473a7.422,7.422,0,0,0,2.74-4.158,1.965,1.965,0,0,1,.147-.6c.392-1.908,0-3.832-1.664-4.81C68.737,75.559,64.463,76.717,59.6,77.011ZM16.641,96.469c2.414-4.959,3.947-10.308,6.034-15.413,2.105-5.138,4.437-10.178,6.542-15.316-2.186-.636-4.372-1.3-6.509-2.1-5.855-2.17-13.162-4.828-16.93-10.161-3.327-4.731-1.745-10.194,2.756-13.62A44.863,44.863,0,0,1,22.741,33.1c6.883-2.105,13.8-1.142,20.812-2.284.033-.016.082,0,.114,0,2.659-3.882,5.888-7.275,7.6-8.4,9.754-6.378,21.808-5.939,30.517,1.874a31.508,31.508,0,0,1,5.252,7.389,1.2,1.2,0,0,1,.555-.1c11.335.147,24.955,1.958,33.176,10.553,6.246,6.556,2.658,15.968-4.127,20.453a51.816,51.816,0,0,1-13.065,6.2c1.419,8.612,5.17,16.556,8.759,24.45,1.566-.946,3.1-1.958,4.632-2.936a1.581,1.581,0,0,1,1.925.261c3.816,4.29,1.712,10.83-3.376,13.1-5.53,2.464-9.689.554-12.168-4.86a1.7,1.7,0,0,1,1.99-2.316,25.355,25.355,0,0,0,4.241-1.7c-3.7-8.09-7.585-16.279-9.053-25.1a68.1,68.1,0,0,1-6.834,1.452q-.268.734-.587,1.42c4.387,2.347,6.41,9.018,2.12,12.541-4.192,3.427-12.086,3.247-14.793-1.858-.783.293-1.583.554-2.382.782a9.163,9.163,0,0,1-2.12,3.881c-3.637,3.769-9.884,3.949-14.3,1.485a13.037,13.037,0,0,1-5.676-6.214c-.669-.261-1.371-.538-2.072-.815a2.7,2.7,0,0,1-.147.309c-3.539,4.437-10.487,4.077-14.745.768-4.224-3.3-3.311-9.412-.31-13.229a13.871,13.871,0,0,1-.9-2.381c-1.843-.359-3.67-.784-5.5-1.239-2.382,5.821-5.089,11.5-7.373,17.354-1.794,4.6-3.245,9.3-5.366,13.749,2.267.326,4.6.261,6.883.36a1.605,1.605,0,0,1,1.387,2.381c-2.365,4.877-6.639,10.553-12.886,8.009C9.676,106.3,6.871,101.591,7.98,95.948a1.618,1.618,0,0,1,1.957-1.111C12.237,95.148,14.39,96,16.641,96.469Z"></path><path d="M52.832,39.143a12.616,12.616,0,0,1,10.25-11.515c2.012-.39,1.158-3.455-.846-3.068-7.279,1.41-11.828,7.412-12.585,14.583-.215,2.038,2.967,2.018,3.181,0Z"></path></g></svg>