<svg xmlns="http://www.w3.org/2000/svg" height="1029.333" width="1546.667"><g fill-rule="evenodd"><path d="M0 1029.333h1546.667V0H0v1029.333" fill="#15171b"/><path d="M1546.667 494.733v534.6H0V420.776c117.476-42.023 338.935-91.912 583.647 2.379 332.001 127.924 472.966 259.278 963.02 71.578" fill="#151a22"/><path d="M199.35 198.281c31.669 0 57.5-25.829 57.5-57.498 0-31.67-25.831-57.5-57.5-57.5-31.67 0-57.5 25.83-57.5 57.5 0 31.669 25.83 57.498 57.5 57.498M614.565 333.45c11.515 0 20.904-9.389 20.904-20.902 0-11.513-9.389-20.903-20.904-20.903-11.513 0-20.901 9.39-20.901 20.903 0 11.513 9.388 20.903 20.901 20.903" fill="#fff"/><path d="M195.183 198.281c31.669 0 57.498-25.829 57.498-57.498 0-31.67-25.829-57.5-57.498-57.5-31.67 0-57.499 25.83-57.499 57.5 0 31.669 25.83 57.498 57.499 57.498" fill="#1c293d"/><path d="M114.969 788.824c228.982-103.068 429.638-153.235 448.176-112.05 18.535 41.186-152.062 158.123-381.048 261.193-63.092 28.397-124.022 52.77-179.599 72.333V842.865c35.313-18.118 73.025-36.286 112.47-54.041" fill="#fff"/><path d="M112.47 774.657c228.982-103.068 429.638-153.234 448.175-112.05C579.181 703.793 408.584 820.729 179.6 923.8 116.506 952.197 55.575 976.57 0 996.132V828.699c35.312-18.12 73.023-36.287 112.47-54.042" fill="#456389"/><path d="M112.47 774.657c159.19-71.653 304.663-117.722 384.798-125.322 12.944 1.908 21.385 6.264 24.54 13.272C540.344 703.793 369.745 820.729 140.76 923.8 92.063 945.719 44.654 965.237 0 982V828.699c35.312-18.12 73.023-36.287 112.47-54.042" fill="#1c293d"/><path d="M79.898 731.108C308.88 628.041 509.532 577.875 528.07 619.058c18.54 41.186-152.063 158.122-381.047 261.193C96.042 903.196 46.474 923.515 0 940.792V768.767a2509.725 2509.725 0 0179.898-37.659" fill="#7bd3dd"/><path d="M96.086 684.517c228.983-103.068 429.64-153.234 448.178-112.05 18.535 41.185-152.064 158.122-381.048 261.192C106.269 859.29 51.079 881.647 0 900.144V730.243c30.518-15.352 62.675-30.686 96.086-45.726" fill="#21324c"/><path d="M96.086 684.517a2547.362 2547.362 0 0136.008-15.869c118.14-37.123 202.41-47.536 214.111-21.54C363.788 686.176 211.181 793.401 0 892.298V730.242c30.518-15.352 62.675-30.686 96.086-45.726" fill="#456389"/><path d="M532.035 547.517c13.29 1.859 21.94 6.244 25.145 13.362 18.536 41.186-152.063 158.124-381.048 261.193-33.445 15.053-66.283 28.977-98.04 41.653a2431.197 2431.197 0 0076.373-34.78C383.45 719.92 554.048 596.228 535.512 552.66c-.81-1.903-1.985-3.607-3.477-5.143M1296.383 120.352c.678 0 1.233-.555 1.233-1.232 0-.679-.555-1.233-1.233-1.233-.68 0-1.234.554-1.234 1.233 0 .677.554 1.232 1.234 1.232M1254.925 211.967a3.112 3.112 0 003.108-3.107 3.114 3.114 0 00-3.108-3.11 3.114 3.114 0 00-3.106 3.11 3.111 3.111 0 003.106 3.107M329.924 244.26a3.113 3.113 0 003.108-3.107 3.114 3.114 0 00-3.108-3.109 3.116 3.116 0 00-3.108 3.11 3.114 3.114 0 003.108 3.106M103.032 109.033a3.112 3.112 0 003.107-3.106 3.114 3.114 0 00-3.107-3.11 3.115 3.115 0 00-3.109 3.11 3.113 3.113 0 003.109 3.106M373.144 199.71c.855 0 1.552-.697 1.552-1.553 0-.854-.697-1.553-1.552-1.553-.856 0-1.555.699-1.555 1.553 0 .856.699 1.554 1.555 1.554M1073.944 688.59c138.25 0 251.01-112.76 251.01-251.009 0-138.25-112.76-251.009-251.01-251.009s-251.008 112.759-251.008 251.01c0 138.249 112.759 251.007 251.008 251.007" fill="#fff"/><path d="M436.61 0h38.334L171.719 827.259h-38.335L436.611 0" fill="#fff"/><path d="M426.047 0h38.333L161.155 827.259H122.82L426.047 0" fill="#21324c"/><path d="M1090.353 0h-38.334l303.221 827.259h38.333L1090.353 0" fill="#fff"/><path d="M1100.917 0h-38.334l303.23 827.259h38.334L1100.917 0" fill="#21324c"/><path d="M762.843 101.5c-187.307 0-339.151 152.888-339.151 341.485 0 188.599 151.844 341.487 339.15 341.487 187.309 0 339.153-152.888 339.153-341.487 0-188.597-151.844-341.485-339.152-341.485zm0-36.293c207.214 0 375.196 169.137 375.196 377.778 0 208.643-167.982 377.779-375.196 377.779-207.214 0-375.195-169.136-375.195-377.779 0-208.641 167.981-377.778 375.195-377.778" fill="#fff"/><path d="M772.62 792.487c208.843 0 409.54 2.153 596.66 6.11H175.956c187.124-3.957 387.823-6.11 596.664-6.11" fill="#fff"/><path d="M0 1029.333h1546.667V803.925H0v225.408" fill="#151a22"/><path d="M690.243 883.92c-156.942 2.392-284.167 20.563-284.167 40.581 0 20.02 127.225 34.308 284.167 31.916 156.942-2.39 284.168-20.558 284.168-40.578 0-20.019-127.226-34.311-284.168-31.919zm856.424-8.125v153.538H0V864.808c198.948-9.45 430.57-14.873 677.861-14.873 331.392 0 634.674 9.736 868.806 25.86" fill="#182232"/><path d="M414.41 884.207c537.1-4.999 972.497 24.854 972.497 66.665 0 33.807-284.624 65.08-677.478 78.461H0V895.265c125.725-5.788 266.179-9.68 414.41-11.058" fill="#fff"/><path d="M683.84 1029.333H0V917.001c484.212-.173 860.245 28.35 860.245 67.204 0 16.187-65.277 31.79-176.405 45.128" fill="#1c293d"/><path d="M693.577 897.516c188.239-1.976 340.838 9.828 340.838 26.36 0 16.534-152.599 31.54-340.838 33.513-188.24 1.978-340.837-9.824-340.837-26.358 0-16.533 152.597-31.539 340.837-33.515" fill="#fff"/><path d="M763.481 99.497c-190.538 0-345.002 154.464-345.002 345.003S572.943 789.501 763.48 789.501c190.539 0 345.002-154.462 345.002-345.001S954.02 99.497 763.48 99.497zm0-36.665c210.79 0 381.667 170.879 381.667 381.668 0 210.79-170.877 381.668-381.667 381.668-210.789 0-381.668-170.879-381.668-381.668 0-210.79 170.879-381.668 381.668-381.668" fill="#21324c"/><path d="M803.156 64.876c1.055.11 2.099.244 3.15.36v5.301l-15.78 15.782h-54.089l-15.781-15.782v-5.301c1.05-.116 2.096-.25 3.15-.36v4.357L737.74 83.17h51.48l13.935-13.936v-4.357M413.693 291.623c.422-.964.835-1.931 1.264-2.892l3.372 1.946 19.046-5.104 25.738-44.578-5.104-19.046-3.244-1.872c.622-.852 1.236-1.706 1.864-2.552l4.084 2.359 5.776 21.55c-9.049 15.587-18.076 31.21-27.046 46.843a5837.942 5837.942 0 00-21.552 5.776l-4.198-2.43" fill="#7bd3dd"/><path d="M701.777 523.67a2.47 2.47 0 002.466-2.466 2.47 2.47 0 00-2.466-2.465 2.47 2.47 0 00-2.466 2.465 2.47 2.47 0 002.466 2.467M867.28 620.908a2.47 2.47 0 002.467-2.467 2.471 2.471 0 00-2.467-2.466 2.47 2.47 0 00-2.467 2.466 2.47 2.47 0 002.467 2.467" fill="#fff"/><path d="M0 827.259h1546.667v-30.143H0v30.143" fill="#21324c"/><path d="M486.367 356.153a2.47 2.47 0 002.466-2.466 2.47 2.47 0 00-2.466-2.466 2.47 2.47 0 00-2.466 2.466 2.47 2.47 0 002.466 2.466M744.7 296.153a2.471 2.471 0 002.467-2.466 2.47 2.47 0 00-2.467-2.466 2.47 2.47 0 00-2.467 2.466 2.47 2.47 0 002.467 2.466M709.7 316.153a2.471 2.471 0 002.467-2.466 2.47 2.47 0 00-2.467-2.466 2.47 2.47 0 00-2.467 2.466 2.47 2.47 0 002.467 2.466M117.915 376.04c.855 0 1.553-.699 1.553-1.553 0-.855-.698-1.554-1.553-1.554s-1.555.699-1.555 1.554c0 .854.7 1.553 1.555 1.553" fill="#fff"/><path d="M763.481 110.579l7.218 12.498 7.217 12.502h-28.87l7.218-12.502 7.217-12.498M428.921 443.861l12.5-7.217 12.5-7.217v28.87l-12.5-7.217-12.5-7.219" fill="#405778"/><path d="M750.64 146.41h24.167v-2.5H750.64v2.5M750.639 153.076h12.084v-2.501h-12.084v2.501" fill="#7bd3dd"/><path d="M487.73 445.112H511.9v-2.501H487.73v2.501M517.728 445.112h5v-2.501h-5v2.501M584.393 445.112h5v-2.501h-5v2.501M591.685 445.112h5v-2.501h-5v2.501" fill="#405778"/><path d="M621.948 424.268a26.22 26.22 0 00-18.593-7.701 26.214 26.214 0 00-18.594 7.704 26.217 26.217 0 00-7.702 18.592c0 7.26 2.945 13.837 7.701 18.596a26.228 26.228 0 0018.595 7.701c7.26 0 13.837-2.945 18.594-7.701a26.226 26.226 0 007.702-18.596 26.223 26.223 0 00-7.703-18.595zm-18.593-9.275c7.693 0 14.661 3.12 19.705 8.162a27.773 27.773 0 018.165 19.708c0 7.693-3.12 14.662-8.162 19.706-5.047 5.044-12.015 8.166-19.708 8.166a27.79 27.79 0 01-19.708-8.163c-5.042-5.047-8.163-12.016-8.163-19.71a27.788 27.788 0 018.163-19.707 27.789 27.789 0 0119.708-8.162" fill="#405778"/><path d="M707.107 405.524c-9.554-9.552-22.76-15.465-37.338-15.465-14.577 0-27.785 5.913-37.337 15.468-9.555 9.553-15.467 22.758-15.467 37.336s5.912 27.785 15.464 37.341c9.555 9.55 22.763 15.464 37.34 15.464 14.578 0 27.784-5.913 37.34-15.464 9.552-9.556 15.466-22.763 15.466-37.341s-5.914-27.783-15.468-37.339zm-37.338-18.628c15.447 0 29.442 6.268 39.57 16.39 10.13 10.125 16.397 24.125 16.397 39.577 0 15.448-6.267 29.442-16.39 39.57-10.135 10.13-24.13 16.398-39.577 16.398-15.453 0-29.453-6.268-39.576-16.391-10.122-10.135-16.39-24.13-16.39-39.577 0-15.452 6.268-29.452 16.39-39.576 10.123-10.123 24.123-16.391 39.576-16.391M461.25 414.452l-11.32 6.539 22.64 13.074v-26.148zm-13.286 5.859l26.181-15.114v31.588l-27.36-15.794 1.179-.68M732.947 151.83l-6.538-11.32-13.074 22.64h26.148zm-5.858-13.286l15.114 26.18h-31.59l15.796-27.359.68 1.179" fill="#7bd3dd"/><path d="M739.336 187.985l2.867-4.964h-31.59l2.867 4.964h1.812l-1.957-3.39h26.148l-1.958 3.39h1.811" fill="#405778"/><path d="M739.336 178.043l2.867-4.966h-31.59l2.867 4.966h1.812l-1.957-3.391h26.148l-1.958 3.39h1.811M585.64 615.576h24.167v-2.501H585.64v2.501M585.639 622.243h12.084v-2.502h-12.084v2.502" fill="#7bd3dd"/><path d="M229.84 818.464h12.5v-5.248h-12.5v5.248M421.09 818.464h12.5v-5.248h-12.5v5.248M1275.264 818.464h12.501v-5.248h-12.501v5.248" fill="#1c293d"/><path d="M70.655 594.548a2.47 2.47 0 002.466-2.465 2.47 2.47 0 00-2.466-2.467 2.47 2.47 0 00-2.466 2.467 2.47 2.47 0 002.466 2.465M176.955 593.265c.678 0 1.233-.554 1.233-1.233s-.555-1.232-1.233-1.232c-.679 0-1.234.553-1.234 1.232 0 .679.555 1.233 1.234 1.233M214.87 537.9c.68 0 1.234-.555 1.234-1.233 0-.679-.555-1.234-1.233-1.234s-1.232.555-1.232 1.234c0 .678.554 1.233 1.232 1.233M298.623 585.816c.678 0 1.233-.555 1.233-1.232 0-.679-.555-1.233-1.233-1.233-.679 0-1.234.554-1.234 1.233 0 .677.555 1.232 1.234 1.232M126.954 654.567c.679 0 1.233-.555 1.233-1.234 0-.68-.554-1.233-1.233-1.233s-1.233.553-1.233 1.233c0 .679.554 1.234 1.233 1.234M316.12 570.813c.679 0 1.233-.554 1.233-1.233s-.554-1.232-1.233-1.232-1.233.553-1.233 1.232c0 .679.554 1.233 1.233 1.233M307.785 528.312c.68 0 1.235-.555 1.235-1.232 0-.679-.555-1.233-1.235-1.233-.677 0-1.232.554-1.232 1.233 0 .677.555 1.232 1.232 1.232M634.021 562.913c.679 0 1.232-.554 1.232-1.233 0-.68-.553-1.233-1.232-1.233-.678 0-1.233.553-1.233 1.233 0 .679.555 1.233 1.233 1.233M658.005 617.897a.617.617 0 10-.002-1.234.617.617 0 00.002 1.234M633.61 630.813c.802 0 1.455-.653 1.455-1.454 0-.802-.653-1.456-1.454-1.456-.803 0-1.456.654-1.456 1.456 0 .801.653 1.454 1.456 1.454M575.379 663.535a.73.73 0 00.728-.728.73.73 0 00-.728-.727.73.73 0 00-.728.727c0 .4.328.728.728.728M569.023 653.747c.4 0 .728-.33.728-.728a.73.73 0 00-.728-.728.73.73 0 00-.728.728c0 .398.328.728.728.728M656.108 650.83a.73.73 0 00.727-.729.73.73 0 00-.727-.728.73.73 0 00-.728.728c0 .4.328.728.728.728M1396.107 223.119c.8 0 1.453-.654 1.453-1.456 0-.802-.653-1.455-1.453-1.455s-1.454.653-1.454 1.455.654 1.456 1.454 1.456M1372.467 266.035c.4 0 .733-.327.733-.728a.735.735 0 00-.733-.727c-.4 0-.734.328-.734.727 0 .401.334.728.734.728M1417.987 317.497c.4 0 .72-.329.72-.728a.723.723 0 00-.72-.728c-.4 0-.734.327-.734.728 0 .399.334.728.734.728M1459.76 287.912c.907 0 1.667-.748 1.667-1.665 0-.919-.76-1.667-1.667-1.667-.92 0-1.667.748-1.667 1.667 0 .917.747 1.665 1.667 1.665M1372.987 635.415c.92 0 1.666-.75 1.666-1.667 0-.919-.746-1.667-1.666-1.667-.92 0-1.667.748-1.667 1.667 0 .917.747 1.667 1.667 1.667M1372.16 560.416a.834.834 0 000-1.667.845.845 0 00-.84.834c0 .457.387.833.84.833M1426.32 638.33a.417.417 0 000-.833.415.415 0 000 .832M1250.853 726.14a.78.78 0 100-1.56.78.78 0 000 1.56M925.941 58.715a2.47 2.47 0 002.467-2.467 2.471 2.471 0 00-2.467-2.465 2.471 2.471 0 00-2.466 2.465 2.47 2.47 0 002.466 2.467M960.54 86.215c.68 0 1.235-.555 1.235-1.234 0-.678-.555-1.233-1.235-1.233-.679 0-1.232.555-1.232 1.233 0 .679.553 1.234 1.232 1.234M970.508 73.73c.679 0 1.233-.554 1.233-1.233 0-.678-.554-1.233-1.233-1.233s-1.233.555-1.233 1.233c0 .679.554 1.234 1.233 1.234M1055.508 134.981c.679 0 1.233-.554 1.233-1.233s-.554-1.233-1.233-1.233-1.233.554-1.233 1.233.554 1.233 1.233 1.233M784.255 164.148c.68 0 1.234-.555 1.234-1.232 0-.68-.554-1.235-1.234-1.235-.678 0-1.231.555-1.231 1.235 0 .677.553 1.232 1.23 1.232M834.657 29.128a2.47 2.47 0 002.467-2.465 2.47 2.47 0 00-2.467-2.466 2.47 2.47 0 00-2.465 2.466 2.47 2.47 0 002.465 2.465M502.99 130.797a2.47 2.47 0 002.467-2.466 2.47 2.47 0 00-2.466-2.467 2.47 2.47 0 00-2.466 2.467 2.47 2.47 0 002.466 2.466M655.525 214.964a2.47 2.47 0 002.467-2.465 2.47 2.47 0 00-2.467-2.467 2.47 2.47 0 00-2.466 2.467 2.47 2.47 0 002.466 2.465M656.757 262.897c.68 0 1.235-.553 1.235-1.232 0-.68-.555-1.233-1.235-1.233-.677 0-1.232.553-1.232 1.233 0 .679.555 1.232 1.232 1.232M615.09 253.73c.68 0 1.234-.554 1.234-1.231 0-.68-.555-1.234-1.235-1.234-.677 0-1.232.554-1.232 1.234 0 .677.555 1.232 1.232 1.232M550.923 59.564c.68 0 1.233-.555 1.233-1.233 0-.679-.553-1.234-1.233-1.234-.678 0-1.232.555-1.232 1.234 0 .678.554 1.233 1.232 1.233M547.59 79.564c.68 0 1.234-.555 1.234-1.233 0-.679-.553-1.234-1.233-1.234-.679 0-1.232.555-1.232 1.234 0 .678.553 1.233 1.232 1.233M728.424 54.564c.679 0 1.233-.555 1.233-1.233 0-.679-.554-1.234-1.233-1.234s-1.232.555-1.232 1.234c0 .678.553 1.233 1.232 1.233M337.99 152.496a2.47 2.47 0 002.467-2.467 2.47 2.47 0 00-2.466-2.465 2.47 2.47 0 00-2.466 2.465 2.47 2.47 0 002.466 2.467M138.79 256.63a2.47 2.47 0 002.465-2.467 2.47 2.47 0 00-2.466-2.467 2.471 2.471 0 00-2.466 2.467 2.471 2.471 0 002.466 2.466M1354.653 49.161c.68 0 1.24-.553 1.24-1.232 0-.678-.56-1.233-1.24-1.233a1.23 1.23 0 00-1.226 1.233c0 .679.546 1.232 1.226 1.232M1504.88 135.604a3.108 3.108 0 000-6.216 3.116 3.116 0 00-3.107 3.108c0 1.712 1.4 3.108 3.107 3.108M1317.557 95.395c.679 0 1.234-.554 1.234-1.234 0-.677-.555-1.232-1.234-1.232-.678 0-1.233.555-1.233 1.232 0 .68.555 1.234 1.233 1.234M1240.907 90.208c.677 0 1.232-.555 1.232-1.233 0-.679-.555-1.234-1.232-1.234-.679 0-1.234.555-1.234 1.234 0 .678.555 1.233 1.234 1.233M1490.28 253.327a.618.618 0 00.613-.616.62.62 0 00-.613-.618.61.61 0 00-.613.618c0 .34.266.616.613.616M1486.547 366.87a3.33 3.33 0 003.32-3.325 3.329 3.329 0 00-3.32-3.324 3.332 3.332 0 00-3.334 3.324 3.333 3.333 0 003.334 3.324M1425.8 295.101c.4 0 .733-.328.733-.728 0-.4-.333-.728-.733-.728-.4 0-.72.328-.72.728 0 .4.32.728.72.728M1454.973 324.267c.4 0 .72-.328.72-.728 0-.4-.32-.728-.72-.728-.4 0-.733.328-.733.728 0 .4.333.728.733.728M1443.2 535.727a2.295 2.295 0 002.293-2.292c0-1.26-1.026-2.291-2.293-2.291a2.295 2.295 0 00-2.293 2.29 2.295 2.295 0 002.293 2.293M1427.68 553.537a1.15 1.15 0 001.147-1.146 1.15 1.15 0 00-1.147-1.144 1.14 1.14 0 00-1.147 1.144c0 .633.507 1.146 1.147 1.146M1407.16 535.727c.627 0 1.147-.515 1.147-1.147a1.15 1.15 0 00-1.147-1.145c-.64 0-1.147.513-1.147 1.145s.507 1.147 1.147 1.147M1461.533 774.892a2.513 2.513 0 002.507-2.5 2.513 2.513 0 00-2.507-2.501 2.513 2.513 0 00-2.506 2.501c0 1.377 1.133 2.5 2.506 2.5M1406.947 751.664c.693 0 1.253-.563 1.253-1.25 0-.689-.56-1.251-1.253-1.251-.68 0-1.254.562-1.254 1.252 0 .686.574 1.249 1.254 1.249M1478.72 716.872c1.093 0 1.987-.89 1.987-1.98 0-1.09-.894-1.979-1.987-1.979s-1.973.89-1.973 1.979c0 1.09.88 1.98 1.973 1.98M1153.95 711.788a1.67 1.67 0 001.667-1.665 1.67 1.67 0 00-1.666-1.667c-.919 0-1.666.748-1.666 1.667 0 .917.747 1.665 1.666 1.665M1199.032 752.392a.835.835 0 00.833-.833.835.835 0 00-.833-.834.836.836 0 00-.833.834c0 .458.376.833.833.833M1152.148 736.764a.835.835 0 00.833-.833.834.834 0 00-.833-.832.834.834 0 00-.832.832c0 .458.375.833.832.833M534.173 548.079c15.77 0 30.922-.518 45.05-1.466h-90.096c14.126.948 29.28 1.466 45.046 1.466M1311.592 324.67c15.77 0 30.915-.517 45.048-1.465h-90.096c14.128.948 29.28 1.464 45.048 1.464" fill="#fff"/><path d="M612.483 333.45c11.513 0 20.902-9.389 20.902-20.902 0-11.513-9.389-20.903-20.902-20.903-11.514 0-20.903 9.39-20.903 20.903 0 11.513 9.39 20.903 20.903 20.903" fill="#1c293d"/><path d="M1261.956 315.997c15.768 0 30.92-.516 45.05-1.465h-90.097c14.126.95 29.28 1.465 45.047 1.465M874.456 267.103c15.768 0 30.921-.518 45.05-1.464h-90.097c14.127.946 29.28 1.464 45.047 1.464M868.619 605.167c15.768 0 30.92-.518 45.048-1.466H823.57c14.128.948 29.281 1.466 45.048 1.466M668.839 333.767c46.176 0 90.552-.516 131.928-1.464H536.908c41.376.948 85.753 1.464 131.93 1.464" fill="#fff"/><path d="M173.279 198.281c31.669 0 57.498-25.829 57.498-57.498 0-31.67-25.829-57.5-57.498-57.5-31.67 0-57.5 25.83-57.5 57.5 0 31.669 25.83 57.498 57.5 57.498" fill="#151a22"/><path d="M126.242 180.896l5.068 8.775 10.134-17.551h-20.27zm4.541 10.299L119.066 170.9h24.489l-12.245 21.208-.527-.913M123.565 203.617h18.736v-1.938h-18.736v1.938M123.567 208.784h9.367v-1.939h-9.367v1.939" fill="#7bd3dd"/><path d="M291.923 76.26c.68 0 1.233-.555 1.233-1.233a1.235 1.235 0 00-2.467 0c0 .678.555 1.233 1.234 1.233M288.59 96.26c.68 0 1.234-.555 1.234-1.233 0-.679-.555-1.232-1.233-1.232-.679 0-1.234.553-1.234 1.232 0 .678.555 1.233 1.234 1.233M318.172 157.927c.679 0 1.233-.555 1.233-1.234 0-.678-.554-1.233-1.233-1.233s-1.233.555-1.233 1.233c0 .679.554 1.234 1.233 1.234M195.253 303.761c.679 0 1.234-.554 1.234-1.233s-.555-1.233-1.234-1.233c-.678 0-1.232.554-1.232 1.233s.554 1.233 1.232 1.233M343.19 190.41c.678 0 1.233-.554 1.233-1.234 0-.677-.555-1.232-1.234-1.232-.678 0-1.233.555-1.233 1.232 0 .68.555 1.233 1.233 1.233M152.77 47.493c.68 0 1.233-.554 1.233-1.233s-.554-1.233-1.232-1.233c-.68 0-1.234.554-1.234 1.233s.554 1.233 1.234 1.233M1153.605 55.41c.68 0 1.234-.555 1.234-1.234 0-.679-.554-1.233-1.234-1.233-.678 0-1.233.554-1.233 1.233s.555 1.233 1.233 1.233M169.837 389.176c.68 0 1.234-.553 1.234-1.232 0-.679-.554-1.233-1.234-1.233-.678 0-1.232.554-1.232 1.233s.554 1.232 1.232 1.232M196.505 357.51c.679 0 1.234-.554 1.234-1.233 0-.678-.555-1.233-1.234-1.233-.678 0-1.233.555-1.233 1.233 0 .679.555 1.234 1.233 1.234M44.404 343.744c.68 0 1.234-.555 1.234-1.233 0-.679-.555-1.234-1.234-1.234-.678 0-1.232.555-1.232 1.234 0 .678.554 1.233 1.232 1.233" fill="#fff"/><path d="M654.723 434.044a17.488 17.488 0 016.225-6.227v1.156a16.581 16.581 0 00-5.068 5.071zm6.225 23.865a17.513 17.513 0 01-6.223-6.226h1.152a16.558 16.558 0 002.258 2.816c.849.849 1.793 1.608 2.813 2.254v1.156zm23.865-6.226a17.564 17.564 0 01-2.713 3.51 17.583 17.583 0 01-3.513 2.716v-1.154a16.612 16.612 0 002.817-2.256c.85-.851 1.608-1.796 2.257-2.816h1.152zm-6.226-23.866a17.53 17.53 0 016.228 6.227h-1.154a16.684 16.684 0 00-2.258-2.816 16.616 16.616 0 00-2.816-2.256v-1.155M1303.21 163.09a22.365 22.365 0 017.964-7.964v1.48a21.12 21.12 0 00-6.486 6.485zm7.963 30.529a22.414 22.414 0 01-4.492-3.472 22.514 22.514 0 01-3.47-4.494h1.476a21.087 21.087 0 006.486 6.487v1.479zm30.534-7.966a22.815 22.815 0 01-3.48 4.49 22.27 22.27 0 01-4.494 3.476v-1.478a20.659 20.659 0 003.6-2.886 20.743 20.743 0 002.894-3.602h1.48zm-7.974-30.526c1.64.964 3.16 2.133 4.494 3.472a22.95 22.95 0 013.48 4.492h-1.48a20.734 20.734 0 00-2.894-3.6 20.659 20.659 0 00-3.6-2.887v-1.477M1356.92 189.075h14.173v-2.502h-14.173v2.502M1379.627 188.87h3.653v-2.502h-3.653v2.501M1384.32 188.87h3.64v-2.502h-3.64v2.501" fill="#7bd3dd"/><path d="M0 838.77h1546.667v-5.247H0v5.246M1303.977 818.464h12.502v-5.248h-12.502v5.248M1370.32 810.192h-23.427v9.407h23.427zm-24.213-1.576h25.786v12.559h-26.573v-12.559h.787M1235.323 810.192h-23.426v9.407h23.426zm-24.214-1.576h25.788v12.559h-26.574v-12.559h.786M334.31 810.192h-23.425v9.407h23.426zm-24.211-1.576h25.786v12.559h-26.574v-12.559h.788M98.396 810.192H74.972v9.407h23.424zm-24.212-1.576h25.788v12.559H73.396v-12.559h.788" fill="#1c293d"/><path d="M798.616 400.281a2.47 2.47 0 002.467-2.465 2.471 2.471 0 00-2.467-2.467 2.471 2.471 0 00-2.467 2.467 2.47 2.47 0 002.467 2.465M813.616 577.815a.835.835 0 00.833-.834.836.836 0 00-.833-.833.834.834 0 000 1.667M782.783 632.815a.834.834 0 000-1.667.836.836 0 00-.834.833c0 .459.375.834.834.834M797.784 623.232a.833.833 0 10-.002-1.665.833.833 0 00.002 1.665M880.699 695.315a.835.835 0 00.833-.834.836.836 0 00-.833-.832.837.837 0 00-.832.832c0 .459.376.834.832.834M778.199 519.48a.835.835 0 00.833-.833.835.835 0 00-.833-.832.836.836 0 00-.834.832c0 .458.376.833.834.833M899.45 676.983a.835.835 0 00.833-.834.835.835 0 00-.834-.832.835.835 0 00-.833.832c0 .459.375.834.833.834M144.927 503.672a.776.776 0 100-1.552.776.776 0 000 1.552M1398.787 423.573h17.32v-7.149h-17.32v7.15" fill="#fff"/><path d="M1408.427 423.23a.889.889 0 000-1.235.879.879 0 00-1.24 0l-12.694 12.694h-23.106a.874.874 0 100 1.748h23.466a.845.845 0 00.614-.257l12.96-12.95M512.167 379.123h17.32v-7.15h-17.32v7.15" fill="#fff"/><path d="M520.828 374.761h20.65l33.65 33.651h20.19v1.573h-20.846l-33.65-33.649h-19.994v-1.575M269.661 201.068h17.32v-7.15h-17.32v7.15" fill="#fff"/><path d="M278.321 196.705h-20.65l-33.65 33.651h-20.189v1.575h20.844l33.65-33.651h19.995v-1.575M1205.273 144.35h17.32v-7.15h-17.32v7.15" fill="#fff"/><path d="M1213.933 139.988h20.651l33.65 33.65h20.189v1.575h-20.843l-33.652-33.65h-19.995v-1.575M702.587 795.51a8.575 8.575 0 01-3.163.6h-.228l-.147 7.07c-.022.967-.113 1.92-.27 2.847a14.555 14.555 0 013.532 2.645 9.08 9.08 0 014.941 7.04l.299 2.39a7.689 7.689 0 012.365 1.907 9.27 9.27 0 01-.161-1.914l.076-3.595a10.142 10.142 0 01-1.564-2.865zM692.3 689.642c4.144 2.561 6.873 7.24 6.761 12.561l-.182 8.777a15.03 15.03 0 01-3.464 9.263c.241.901.36 1.855.337 2.837v.002a10.441 10.441 0 01-1.492 5.164h3.292c3.099 0 5.979.924 8.39 2.52 4.898.17 9.065 3.938 9.635 9.046l3.826 34.29a10.627 10.627 0 01-.64 4.974l8.853 25.127c.75 2.128.763 4.37.17 6.425a9.21 9.21 0 01.167 1.94l-.117 5.526c-.108 5.062-4.259 9.204-9.23 9.204h-.003c-2.854 0-5.379-1.364-6.992-3.479l.006.057 3.004 21.12c.466 3.271-1.137 6.426-3.798 8.064l.498 4.016c.14 1.114.151 2.218.046 3.296a7.72 7.72 0 011.124 3.067l3.002 21.121a8.054 8.054 0 01-.308 3.602l3.53 28.42c5.914 1.136 10.168 4.625 10.08 8.756-.106 5.047-6.658 9.144-14.635 9.144h-.07a14.798 14.798 0 01-7.549 3.514c-8.01 1.2-15.388-4.463-16.401-12.594l-4.963-39.964c-.613-4.924 1.247-9.668 4.591-12.91-4.012-2.136-6.96-6.156-7.572-11.081l-1.325-10.68-2.035 12.23a15.042 15.042 0 01-7.87 10.857c3.14 3.176 4.767 7.822 3.963 12.648l-5.354 32.205c2.862 1.676 4.628 4.083 4.569 6.757-.084 4.1-4.417 7.566-10.31 8.728-3.158 2.943-7.525 4.484-12 3.805-7.797-1.176-13.095-8.657-11.769-16.621l6.507-39.158a15.062 15.062 0 017.873-10.859c-3.14-3.173-4.768-7.823-3.965-12.645l.397-2.391c-2.341-1.49-3.693-4.333-3.2-7.305l3.256-19.579c.494-2.977 2.699-5.279 5.411-6.007l.123-.738c-6.907-4.163-11.47-11.892-11.286-20.692l.27-12.795c-3.262-2.541-5.33-6.581-5.235-11.11l.703-33.351c.138-6.571 4.788-12.116 10.858-13.55 3.303-4.118 7.88-7.142 13.075-8.42a10.46 10.46 0 011.53-4.938l.06-2.963c.015-.659.087-1.3.213-1.928a14.328 14.328 0 01-1.12-5.877l.18-8.78c.162-8.048 6.878-14.627 14.924-14.627h.002c4.82 0 9.062 2.36 11.659 5.979" fill="#fff"/><path d="M551.597 933.402c112.992-8.914 204.592-9.69 204.592-1.733 0 7.956-91.6 21.633-204.592 30.543-112.99 8.913-204.59 9.69-204.59 1.732 0-7.955 91.6-21.632 204.59-30.542" fill="#1c293d"/><path d="M679.14 684.595h.003c8.045 0 14.493 6.581 14.329 14.626l-.18 8.778c-.164 8.045-6.88 14.629-14.927 14.629h-.001c-8.045 0-14.493-6.584-14.327-14.63l.178-8.777c.165-8.045 6.88-14.626 14.925-14.626" fill="#21324c"/><path d="M690.23 691.164a14.307 14.307 0 015.33 11.463l-.177 8.777c-.115 5.51-3.298 10.33-7.879 12.824a14.305 14.305 0 01-5.33-11.461l.178-8.779c.113-5.51 3.296-10.33 7.877-12.824" fill="#f57dc4"/><path d="M688.139 687.759a14.3 14.3 0 015.333 11.461l-.18 8.779c-.112 5.509-3.296 10.33-7.876 12.824a14.297 14.297 0 01-5.33-11.462l.178-8.777c.11-5.51 3.296-10.332 7.875-12.825" fill="#456389"/><path d="M669.083 709.87h11.016a10.01 10.01 0 0110.021 10.23v.001c-.115 5.628-4.812 10.23-10.439 10.23h-11.016a10.01 10.01 0 01-10.021-10.23v-.001c.116-5.628 4.812-10.23 10.439-10.23" fill="#456389"/><path d="M666.015 701.125h.004c5.924 0 10.91 4.847 11.084 10.771l.421 14.41a10.427 10.427 0 01-10.456 10.767h-.004c-5.925 0-10.912-4.844-11.085-10.768l-.422-14.409a10.43 10.43 0 0110.458-10.77" fill="#21324c"/><path d="M702.49 741.281c-.18 8.81-7.537 16.016-16.35 16.016h-23.463c-8.812 0-15.873-7.206-15.693-16.016.179-8.809 7.535-16.018 16.348-16.018h23.463c8.812 0 15.874 7.209 15.696 16.018" fill="#456389"/><path d="M690.008 741.281c-.179 8.81-7.536 16.016-16.35 16.016h-10.98c-8.813 0-15.874-7.206-15.694-16.016.179-8.809 7.535-16.018 16.348-16.018h10.98c8.815 0 15.876 7.209 15.696 16.018" fill="#456389"/><path d="M707.648 741.281c-.181 8.81-7.537 16.016-16.35 16.016h-23.463c-8.812 0-15.875-7.206-15.696-16.016.181-8.809 7.537-16.018 16.35-16.018h23.463c8.812 0 15.876 7.209 15.696 16.018" fill="#456389"/><path d="M696.052 752.396l-.536 26.343c-.215 10.448-8.941 19-19.396 19h-.003c-10.454 0-18.833-8.552-18.618-19l.536-26.343c.213-10.45 8.94-19 19.394-19h.004c10.455 0 18.832 8.55 18.619 19" fill="#456389"/><path d="M695.673 771.025l-.157 7.714c-.215 10.449-8.941 19-19.396 19h-.003c-10.454 0-18.833-8.551-18.618-19l.157-7.714c.212-10.45 8.94-19 19.393-19h.006c10.453 0 18.83 8.55 18.618 19" fill="#456389"/><path d="M693.715 792.492l-.159 7.713c-.212 10.451-8.94 18.999-19.393 18.999h-.004c-10.455 0-18.832-8.548-18.62-18.999l.157-7.713c.215-10.45 8.941-19 19.393-19h.006c10.453 0 18.832 8.55 18.62 19" fill="#2d4365"/><path d="M687.743 743.065l-1.142 55.962c-.269 13.168-11.264 23.94-24.436 23.94h-.002c-13.174 0-23.73-10.772-23.46-23.94l1.141-55.962c.268-13.169 11.264-23.94 24.436-23.94h.003c13.173 0 23.729 10.771 23.46 23.94" fill="#1c293d"/><path d="M682.545 749.423l-.642 31.542c-.178 8.679-5.014 16.319-12.06 20.52 4.565-4.356 7.481-10.436 7.618-17.136l.78-38.305a23.397 23.397 0 00-6.92-17.144c6.875 4.203 11.402 11.844 11.224 20.523" fill="#21324c"/><path d="M671.593 752.985l-.55 26.859c-.126 6.15-5.264 11.18-11.419 11.18-.468 0-.93-.03-1.381-.088 4.709-1.337 8.25-5.661 8.354-10.753l.548-26.858a10.943 10.943 0 00-9.584-11.094 11.21 11.21 0 013.064-.426c6.158 0 11.092 5.03 10.968 11.18" fill="#456389"/><path d="M703.437 762.923l-.434 21.324c-.1 4.886-4.182 8.884-9.07 8.884h-.004a8.694 8.694 0 01-8.706-8.884l.434-21.324c.099-4.887 4.179-8.884 9.07-8.884h.002a8.696 8.696 0 018.708 8.884" fill="#2d4365"/><path d="M650.757 816.483l-6.618 39.338c-1.334 7.918 4.074 15.356 12.017 16.535 7.944 1.176 15.53-4.332 16.863-12.252l6.62-39.337c1.332-7.916-4.075-15.355-12.019-16.532-7.943-1.179-15.53 4.332-16.863 12.248" fill="#1c293d"/><path d="M640.213 879.147l-6.62 39.337c-1.333 7.919 4.075 15.356 12.018 16.535 7.945 1.177 15.529-4.333 16.861-12.25l6.621-39.338c1.332-7.916-4.074-15.354-12.018-16.534-7.943-1.178-15.53 4.332-16.862 12.25M701.747 815.336l5.282 41.443c1.084 8.51-4.973 16.5-13.466 17.75-8.492 1.254-16.326-4.686-17.411-13.197l-5.284-41.443c-1.085-8.516 4.973-16.504 13.467-17.756 8.49-1.252 16.326 4.688 17.412 13.203" fill="#1c293d"/><path d="M710.237 881.933l5.283 41.443c1.085 8.51-4.975 16.5-13.465 17.753-8.494 1.25-16.328-4.69-17.414-13.2l-5.282-41.444c-1.086-8.513 4.973-16.504 13.465-17.754 8.493-1.254 16.328 4.688 17.413 13.202M644.593 826.412l-3.31 19.667a7.152 7.152 0 006.009 8.269c3.972.588 7.765-2.17 8.43-6.128l3.31-19.667a7.146 7.146 0 00-6.01-8.266c-3.97-.591-7.763 2.166-8.429 6.125" fill="#1c293d"/><path d="M702.692 813.843l3.304 25.917c.679 5.324-3.108 10.317-8.419 11.101h-.002a9.556 9.556 0 01-10.887-8.256l-3.304-25.916c-.68-5.325 3.108-10.318 8.419-11.101h.002a9.554 9.554 0 0110.887 8.255" fill="#456389"/><path d="M691.003 825.044l3.192 21.897a8.104 8.104 0 009.356 6.835l.002-.001c4.492-.744 7.626-5.035 6.97-9.539l-3.191-21.895a8.106 8.106 0 00-9.359-6.834h-.002c-4.491.744-7.626 5.033-6.968 9.537" fill="#2d4365"/><path d="M713.98 800.381h.001a9.01 9.01 0 019.019 9.204l-.113 5.527c-.106 5.064-4.331 9.205-9.394 9.205h-.001a9.007 9.007 0 01-9.017-9.205l.113-5.527c.103-5.061 4.33-9.204 9.392-9.204" fill="#f57dc4"/><path d="M705.053 782.877a10.265 10.265 0 01-11.581-9.016l-3.916-34.177c-.657-5.73 3.479-11.045 9.193-11.815a10.265 10.265 0 0111.583 9.019l3.916 34.176c.657 5.73-3.483 11.044-9.195 11.813" fill="#456389"/><path d="M716.316 814.707c-5.417 2.044-11.45-.742-13.41-6.191l-11.54-32.076c-1.96-5.447.867-11.575 6.285-13.617v-.002c5.417-2.042 11.452.742 13.41 6.19l11.54 32.076c1.96 5.449-.868 11.577-6.285 13.62" fill="#456389"/><path d="M691.968 866.245l3.192 21.894a8.103 8.103 0 009.356 6.834h.003c4.492-.744 7.625-5.034 6.969-9.538l-3.193-21.896a8.104 8.104 0 00-9.356-6.835h-.003c-4.49.745-7.625 5.036-6.968 9.541" fill="#2d4365"/><path d="M710.517 918.424c8.459 0 15.23 4.264 15.123 9.523-.107 5.257-7.052 9.521-15.51 9.521-8.46 0-15.23-4.264-15.123-9.521.106-5.259 7.052-9.523 15.51-9.523M653.796 913.34c8.124 0 14.625 4.094 14.523 9.143-.104 5.05-6.772 9.145-14.896 9.145-8.123 0-14.624-4.095-14.522-9.145.104-5.049 6.772-9.143 14.895-9.143M699.716 780.392a10.267 10.267 0 01-11.581-9.019l-3.916-34.176c-.658-5.729 3.48-11.045 9.193-11.816a10.268 10.268 0 0111.583 9.019l3.916 34.177c.657 5.728-3.482 11.044-9.195 11.815" fill="#1c293d"/><path d="M710.979 812.22c-5.418 2.043-11.451-.743-13.411-6.192l-11.539-32.075c-1.958-5.446.868-11.574 6.284-13.618 5.418-2.043 11.452.742 13.412 6.189l11.539 32.075c1.96 5.449-.868 11.578-6.285 13.621" fill="#1c293d"/><path d="M715.975 789.027l3.268 8.398a4.06 4.06 0 01-2.283 5.231h-.003a4.01 4.01 0 01-5.202-2.27l-3.267-8.4a4.06 4.06 0 012.283-5.231h.001a4.01 4.01 0 015.203 2.272M699.337 935.212a17.157 17.157 0 01-3.973 1.083h-.003c-8.624 1.253-15.834-4.578-16.028-12.955l-.968-41.936c-.117-5.057 2.351-9.932 6.219-13.275-3.996-2.206-6.67-6.329-6.785-11.388l-.968-41.936c-.194-8.378 6.704-16.254 15.324-17.506l.005-.002a15.81 15.81 0 013.776-.098c-6.668 2.698-11.516 9.385-11.353 16.425l.968 41.936c.114 5.059 2.789 9.183 6.786 11.388-3.87 3.343-6.337 8.217-6.22 13.273l.967 41.938c.164 7.116 5.396 12.397 12.253 13.053" fill="#21324c"/><path d="M648.1 816.505c-6.152-4.329-10.113-11.538-9.947-19.661l1.142-55.996c.161-7.915 4.205-14.96 10.266-19.32-4.544 4.565-7.425 10.79-7.564 17.63l-1.209 59.238a24.708 24.708 0 007.312 18.11" fill="#fff"/><path d="M714.117 746.59l2.274 18.287c.521 4.188-2.482 7.614-6.672 7.614a7.75 7.75 0 01-.948-.059c3.073-.91 5.058-3.855 4.626-7.323l-2.273-18.286c-.481-3.87-3.81-7.088-7.621-7.555a7.244 7.244 0 012.046-.29c4.192 0 8.048 3.426 8.568 7.613" fill="#1c293d"/><path d="M756.535 699.065a.834.834 0 000-1.666.835.835 0 00-.834.833c0 .459.375.833.834.833" fill="#fff"/></g></svg>